<svg xmlns="http://www.w3.org/2000/svg" viewBox="0 0 49.111 49.111"><path d="M48.844 24.862c-.1-5.5-.3-13.4-.6-14.6s-4.1-6.8-5.4-8-3.7-1.8-5.9-1.8c-2.2-.1-20-.8-24.9-.2s-6.8 2.5-8.1 3.6c-1.1 1-2.5 2-3.1 3.9s-.7 7.4-.8 13.2c-.1 5.9 0 12.5 0 15.3s1.3 5.5 2.7 7.3 4.3 3.7 6 4.3 2.4.9 7.2 1c4.9.1 8.2.3 14.9.2 6.6-.1 9.2-.4 12.1-1.8s5.1-4.9 5.8-6.8.2-10 .1-15.6zm-13.1 20.9c-.1.1-1 .3-1.1.1-.2-.2-1.5-3-1.5-3.1 0-.2 1.2-.2 1.3-.1s1.4 3 1.3 3.1zm-24.8-18.9c.1 1.2.8 5.1 3.4 7.2 2.6 2.1 4.8 3 7.1 3.2s5.4-.3 7.1-1.2 4.3-2.7 5.2-4.8 1.5-4.8 1.5-6.2c0-1.4.2-2.9.3-3s6.7-.4 6.9-.1.3 9.8.1 12.5-.2 4.9-1.2 5.6c-1 .8-1 1.1-4.2 1.3s-7.8.7-12.7.7-10.6-.1-12.6-.3-3.6-.8-3.8-1.6-.4-6.5-.5-10 0-7.1.2-7.4c.2-.2 3.4-1.1 3.5-1-.1.2-.4 3.9-.3 5.1zm25.7 18.7c-.2-.1-1.4-3-1.4-3 0-.1 1.1-.1 1.2-.1s1.7 2.5 1.6 2.6-1.3.6-1.4.5zm3.1-.9c-.2.2-.8.3-.9.3s-1.3-2.5-1.4-2.6c-.1-.1 1-.1 1.1 0 .3.2 1.4 2.2 1.2 2.3zm.8-.4c-.2-.1-1-1.8-1.1-1.9 0-.1.9-.5 1-.4.2.1 1 1.6 1 1.6s-.7.7-.9.7zm1.6-1.4c-.2-.1-.8-1.3-.9-1.4 0-.1.9-.7.9-.7s.8.8.8.9-.6 1.3-.8 1.2zm1.3-2.1c-.2.1-.8-.9-.8-1s.1-1.3.3-1.3c.1 0 1.1 1.1 1.2 1.2s-.5 1.1-.7 1.1zm1.7-14.2c-.2 5.3-.1 7.9-.2 9.5-.2 1.6-.5 2.5-.6 2.5s-1.1-1.4-1.1-1.6.1-4.3.2-7.5.1-8.6 0-9.6-.4-1.4-1-1.6-4.9-.2-7.1-.2c-2.2 0-2.8 0-3 .2-.1.2-.2 1.2-.1 1.6s.4 1.2.4 1.3.2 5.2-.9 7.2c-1 2-2 4.1-5.6 5.4-3.6 1.3-5.3 1.6-8.5.5s-4.5-3.2-5-4.6c-.5-1.4-.8-4.8-.6-6.9s.3-2.5.7-2.9c.3-.4.7-.6.6-.9-.1-.3-.4-.4-1.5-.7-1.1-.3-4-.2-5-.3s-1.7.1-2 1c-.4 1 .3 9.6.5 13.7s.4 6.3 1.4 7.7 1.8 1.9 3.3 2.1c1.5.2 4.3.6 7.1.5 2.9-.1 9.8-.3 11.5-.3s3.8-.1 3.9-.1 1.5 3 1.4 3.1-.9.2-1.1.1c-.1-.1-1.3-2.7-1.6-2.7s-.8.2-.8.4 1.4 2.3 1.3 2.3-1.3.1-1.5 0c-.1-.1-1-2.5-1.1-2.5s-.6 0-.7.2c-.1.1.9 2.2.8 2.2-.1 0-.9.1-1-.1-.1-.1-.9-2.2-1.1-2.2s-.6.2-.6.3.7 2 .6 2-1.2.1-1.3 0-.6-1.7-.8-1.7-.8.2-.7.4.7 1.4.5 1.4-5.7.3-10.3.1-6.4.2-8.1-.7-4-3.2-4.7-5c-.7-1.7-1-6.4-.8-9.8s-.2-8.2.1-12.9-.1-10.6 3.5-13.1c.8-.6 2.8-2 4.2-2.4 1.3-.4 3.5-.9 3.8-.6.3.3.6 1.8.9 1.8s.8-.1.7-.4-.7-1.4-.5-1.4.6-.1.8 0c.1.1 1.6 1.9 2 3s.4 1.1.6 1.1.4-.2.4-.5c-.1-.3-.6-1.9-1-2.7-.5-.8-.8-1.2-.6-1.2s.6-.3.9 0 1.6 2.2 2.1 3.1.4 1.2.6 1.2.5-.1.4-.6c-.2-.5-.7-1.7-1.2-2.6s-.8-1.3-.7-1.3 1.3-.1 1.5.1 1.8 3.4 2.4 4.6.9 2.2 1.1 2.2.4-.1.3-.3c-.1-.2-1.8-3.9-2.2-5.1s-.6-1.5-.4-1.5.9-.2 1.1 0c.2.2 1.5 3 2.5 4.9s1.8 3.5 1.9 3.5.3-.2.2-.5c-.2-.3-2-4.6-2.4-5.4-.4-.8-1.1-2.5-.9-2.5s1-.1 1.1.1c.1.2 2 3.3 2.8 5.4s1 2.7 1.1 2.7.2-.2.2-.3-1.2-3.5-1.9-5-1.2-2.6-1-2.6 1.2-.1 1.3.1c.1.2 2.2 4.5 2.7 5.6s.8 1.8.9 1.8.3-.2.2-.6c-.2-.4-1.7-4.7-2.2-5.6s-.6-1.3-.4-1.3.8-.1.9.2c.1.3 2.9 6.5 3 6.5s.3-.1.3-.3-1.7-4.5-2-5.3c-.3-.7-.4-1.1-.2-1.1s1.2 0 1.2.1 1.9 4.3 2.1 4.3.3-.1.3-.4-1.2-3.1-1.3-3.3c-.1-.3-.3-.5-.1-.6.2 0 1.4.1 1.4.1s1 2.1 1.2 2.1.7-.3.5-.7-.8-1.6-.6-1.6.8-.1.9.1c.1.2 1.2 2.6 1.5 2.6s.5-.2.5-.4c-.1-.2-1.2-2.3-1.1-2.3s1.1-.1 1.2.1c.2.2 1 2.2 1.4 2.2s.6-.4.5-.5c-.1-.2-.9-1.7-.7-1.7s.5-.1.7.2 1.5 3.4 1.6 3.4.6-.4.5-.6-1.2-2.7-1-2.8.8 0 1.2.6.6 1.4.8 1.4.6-.3.7-.3 1.8 1.7 1.9 4.8.2 13.3 0 18.6zm-35.6-22.6c-.6 0-2.5.7-3.9 1.7s-2.4 3-2.5 3.7 0 2.4.1 2.5c.2.2.7.1.9 0 .2-.1.1-.8 0-1.4-.1-.7.4-1.8 1.1-2.7s2.2-2.1 3-2.4c.8-.3 1.6-.4 1.8-.6s.1-.7-.5-.8zm22.6 9.6c-.3-.1-.1-2-.2-2.2-.1-.2-1.1-.3-1.1-.1 0 .2-.2 3 0 3.3s1.9.4 2.3.4.3-.6.2-.9c0-.4-.9-.4-1.2-.5zm6.7-8.3c-.6-.1-4.8 0-5.3.2s-.5 1.6-.4 2.9.1 4.1.3 4.3c.5.6 5.7.4 6.4.2.7-.2.4-4.6.3-5.7s-.7-1.8-1.3-1.9zm.1 6.4c-.3 0-3.4.1-3.6-.1-.2-.2-.1-3.4 0-3.7.1-.2 3.6-.3 3.8-.1s.1 3.9-.2 3.9zm-19 4.3c.5-.1.3-.8 0-.9s-1.4.2-2.7 1.1c-1.4.9-2.3 2.2-2.5 2.8s-.1 1.4.1 1.5c0 0 .5.1.8.1s.3-1.5 1.2-2.6c.8-1.2 2.6-1.9 3.1-2zm2.5.3c-2.8-.2-4.7 1.7-5.3 2.4-1.6 2-1.6 6.4-1 8.3s3.8 3.4 5 3.6c1.2.3 5.8-.6 7.1-2.8s.9-5.6.2-7.8-3.2-3.4-6-3.7zm5 11.1c-1.2 1.2-3.3 2.4-5.5 2.3-2.2-.1-4.2-1.2-3.9-3.7s1.4-3.4 2.5-4.5c.7-.7 2.6-1.9 4.1-1.9s2.3-.1 3 1.5.9 5.1-.2 6.3z"/></svg>